<?xml version="1.0" encoding="UTF-8"?><svg id="a" xmlns="http://www.w3.org/2000/svg" viewBox="0 0 24 24"><polyline points="10.6498 3.6651 11.6132 1.9709 14.902 1.2733 13.2077 3.4658 14.5681 6.057 19.6856 8.4609 11.3142 8.4609" fill="none" stroke="#231f20" stroke-miterlimit="10"/><polyline points="9.9854 4.8671 9.3874 6.057 4.2383 8.4609 9.6532 8.4609" fill="none" stroke="#231f20" stroke-miterlimit="10"/><line x1="9.3874" y1="6.057" x2="14.5681" y2="6.057" fill="none" stroke="#231f20" stroke-miterlimit="10"/><path d="M6.8113,15.4534l-1.6771.7443c-.8638.3869-1.3143,1.0279-1.3617,1.9169v2.0858s4.9891,0,4.9891,0" fill="none" stroke="#231f20" stroke-miterlimit="10"/><path d="M19.9048,17.0452c.1936.3035.3008.6602.3227,1.0693v2.0858s-4.9891,0-4.9891,0" fill="none" stroke="#231f20" stroke-miterlimit="10"/><path d="M17.1887,15.4534l1.6771.7443" fill="none" stroke="#231f20" stroke-miterlimit="10"/><path d="M15.776,12.817c0,.5294-.4292.9586-.9586.9586s-.9586-.4292-.9586-.9586-.4292-.9586-.9586-.9586h-1.8004c-.5294,0-.9586.4292-.9586.9586s-.4292.9586-.9586.9586-.9586-.4292-.9586-.9586" fill="none" stroke="#231f20" stroke-miterlimit="10"/><path d="M16.5177,8.4609c.4171,0,.7552.3381.7552.7552s-.3381.7552-.7552.7552h-.7417v6.7407s-3.7592,6.0146-3.7592,6.0146l-2.4743-3.783" fill="none" stroke="#231f20" stroke-miterlimit="10"/><path d="M7.4823,8.4609c-.4171,0-.7552.3381-.7552.7552s.3381.7552.7552.7552h.7417v6.9565l.4669.7138" fill="none" stroke="#231f20" stroke-miterlimit="10"/><polyline points="6.7743 11.4257 4.8728 11.4257 6.7743 13.4838" fill="none" stroke="#231f20" stroke-miterlimit="10"/><polyline points="17.2257 11.4257 19.1272 11.4257 17.2257 13.4838" fill="none" stroke="#231f20" stroke-miterlimit="10"/></svg>