<?xml version="1.0" encoding="UTF-8"?><svg id="a" xmlns="http://www.w3.org/2000/svg" viewBox="0 0 24 24"><polyline points="14.8676 19 15.359 21.7506 8.641 21.7506 9.4452 17.2494" fill="none" stroke="#231f20" stroke-miterlimit="10"/><rect x="2" y="2.2494" width="20" height="15" fill="none" stroke="#231f20" stroke-miterlimit="10"/><line x1="7" y1="21.7506" x2="17" y2="21.7506" fill="none" stroke="#231f20" stroke-miterlimit="10"/><path d="M10.8099,5.7824h.7934M9.6198,6.2526v-1.2637c0-.4382.3552-.7934.7934-.7934h3.1736c.4382,0,.7934.3552.7934.7934v3.967c0,.4382-.3552.7934-.7934.7934h-3.1736c-.4382,0-.7934.3552-.7934.7934v3.967c0,.4382.3552.7934.7934.7934h3.1736c.4382,0,.7934-.3552.7934-.7934v-1.2942M12.3967,7.3692h-5.1571c-.4382,0-.7934.3552-.7934.7934v3.967c0,.4382.3552.7934.7934.7934h2.3802M11.6033,12.1296h5.1571c.4382,0,.7934-.3552.7934-.7934v-3.967c0-.4382-.3552-.7934-.7934-.7934h-2.3802M12.3967,13.7164h.7934" fill="none" stroke="#231f20" stroke-miterlimit="10"/></svg>